<svg width="257" height="190" viewBox="0 0 257 190" fill="none" xmlns="http://www.w3.org/2000/svg">
<path d="M247.259 188.801H14.9814C14.9814 188.801 5.74641 191.815 0.652369 167.833C-4.44167 143.85 21.7756 137.423 28.0095 116.712C34.2434 96.001 7.04729 100.361 9.33349 72.0184C11.6197 43.676 48.991 43.1286 67.1196 46.9475C85.2482 50.7664 82.9813 37.6803 103.944 15.8745C124.906 -5.93135 156.616 -3.74175 172.472 13.1504C188.327 30.0425 183.239 47.4884 203.068 47.4884C222.897 47.4884 241.025 51.3074 252.92 87.8222C264.815 124.337 243.073 141.029 243.466 157.49C243.799 168.019 245.068 178.498 247.259 188.801Z" fill="#92E3A9"/>
<path opacity="0.6" d="M247.259 188.801H14.9814C14.9814 188.801 5.74641 191.815 0.652369 167.833C-4.44167 143.85 21.7756 137.423 28.0095 116.712C34.2434 96.001 7.04729 100.361 9.33349 72.0184C11.6197 43.676 48.991 43.1286 67.1196 46.9475C85.2482 50.7664 82.9813 37.6803 103.944 15.8745C124.906 -5.93135 156.616 -3.74175 172.472 13.1504C188.327 30.0425 183.239 47.4884 203.068 47.4884C222.897 47.4884 241.025 51.3074 252.92 87.8222C264.815 124.337 243.073 141.029 243.466 157.49C243.799 168.019 245.068 178.498 247.259 188.801Z" fill="#B1CD3F"/>
<path d="M145.881 12.4806H102.089V75.5926H145.881V12.4806Z" fill="#92E3A9"/>
<path opacity="0.4" d="M145.881 12.4806H102.089V75.5926H145.881V12.4806Z" fill="white"/>
<path d="M139.628 21.4966H108.349V66.5766H139.628V21.4966Z" fill="white"/>
<path d="M67.2162 50.264H36.8323V94.0561H67.2162V50.264Z" fill="#92E3A9"/>
<path opacity="0.4" d="M67.2162 50.264H36.8323V94.0561H67.2162V50.264Z" fill="white"/>
<path d="M62.8757 56.5173H41.1729V87.7964H62.8757V56.5173Z" fill="white"/>
<path d="M214.692 50.264H184.308V94.0561H214.692V50.264Z" fill="#92E3A9"/>
<path opacity="0.4" d="M214.692 50.264H184.308V94.0561H214.692V50.264Z" fill="white"/>
<path d="M210.352 56.5173H188.649V87.7964H210.352V56.5173Z" fill="white"/>
<path d="M180.85 137.874C179.562 141.094 178.197 138.518 178.409 124.955C178.512 118.605 178.957 105.635 185.983 108.488C192.725 111.232 183.838 130.416 183.838 130.416L180.85 137.874ZM190.51 139.806C190.51 139.806 205.148 124.55 199.655 119.765C193.942 114.78 189.306 126.907 187.148 132.883C182.55 145.628 182.975 148.519 185.261 145.885L190.51 139.806ZM193.595 153.497C193.595 153.497 206.996 143.953 203.493 139.497C199.848 134.86 194.548 143.464 192.03 147.714C186.665 156.795 186.575 159.068 188.7 157.374L193.595 153.497ZM197.22 167.15C197.22 167.15 210.629 157.606 207.125 153.15C203.474 148.513 198.174 157.11 195.662 161.367C190.297 170.441 190.201 172.721 192.332 171.027L197.22 167.15ZM173.817 139.703C173.817 139.703 155.058 129.94 152.012 136.554C148.837 143.438 161.775 144.481 168.112 144.868C181.636 145.705 184.295 144.481 181.127 143.026L173.817 139.703ZM176.458 150.445C176.458 150.445 156.133 144.61 154.459 151.701C152.72 159.074 165.606 157.497 171.898 156.647C185.319 154.779 187.676 153.053 184.282 152.254L176.458 150.445ZM181.108 162.166C181.108 162.166 163.79 157.696 162.535 163.731C161.247 170.01 172.098 168.4 177.398 167.511C188.7 165.617 190.658 164.104 187.773 163.512L181.108 162.166ZM183.819 171.826C183.819 171.826 167.075 165.54 165.188 171.407C163.224 177.519 174.204 177.068 179.562 176.746C191.006 176.063 193.086 174.769 190.297 173.867L183.819 171.826ZM172.594 122.798C172.594 122.798 164.95 99.0343 156.268 103.356C147.252 107.864 157.672 118.56 162.895 123.693C174.03 134.641 177.475 135.401 176.014 131.582L172.594 122.798Z" fill="white"/>
<path d="M159.9 111.85C159.9 111.85 179.104 135.279 183.696 147.006C188.977 160.485 192.571 175.664 193.285 188.222" stroke="#CCCCCC" stroke-width="1.25197" stroke-linecap="round" stroke-linejoin="round"/>
<path d="M179.871 139.349L182.544 117.008" stroke="#CCCCCC" stroke-width="1.25197" stroke-linecap="round" stroke-linejoin="round"/>
<path d="M183.696 146.999L193.356 128.22" stroke="#CCCCCC" stroke-width="1.25197" stroke-linecap="round" stroke-linejoin="round"/>
<path d="M182.286 144.217L162.052 140.096" stroke="#CCCCCC" stroke-width="1.25197" stroke-linecap="round" stroke-linejoin="round"/>
<path d="M187.496 157.658L199.391 144.108" stroke="#CCCCCC" stroke-width="1.25197" stroke-linecap="round" stroke-linejoin="round"/>
<path d="M185.834 153.195L170.565 153.059" stroke="#CCCCCC" stroke-width="1.25197" stroke-linecap="round" stroke-linejoin="round"/>
<path d="M188.777 164.284L177.063 164.742" stroke="#CCCCCC" stroke-width="1.25197" stroke-linecap="round" stroke-linejoin="round"/>
<path d="M191.18 171.355L197.452 162.996" stroke="#CCCCCC" stroke-width="1.25197" stroke-linecap="round" stroke-linejoin="round"/>
<path d="M191.643 174.466L177.939 173.783" stroke="#CCCCCC" stroke-width="1.25197" stroke-linecap="round" stroke-linejoin="round"/>
<path d="M229.807 156.376C227.444 157.265 228.165 155.275 235.474 148.732C238.9 145.66 246.023 139.523 247.955 144.662C249.816 149.601 235.242 154.322 235.242 154.322L229.807 156.376ZM233.523 162.449C233.523 162.449 248.837 162.739 248.683 157.464C248.522 151.978 239.796 155.468 235.558 157.258C226.542 161.077 225.183 162.726 227.708 162.649L233.523 162.449ZM227.759 170.821C227.759 170.821 239.422 173.262 240.072 169.205C240.716 164.986 233.562 166.397 230.065 167.15C222.601 168.754 221.345 169.823 223.283 170.132L227.759 170.821ZM222.304 179.47C222.304 179.47 233.974 181.911 234.618 177.854C235.294 173.635 228.113 175.039 224.61 175.793C217.152 177.396 215.864 178.465 217.796 178.774L222.304 179.47ZM225.402 153.53C225.402 153.53 221.371 138.75 216.386 140.379C211.163 142.073 216.972 149.472 219.883 153.034C226.085 160.639 228.043 161.451 227.257 159.049L225.402 153.53ZM220.984 160.214C220.984 160.214 214.1 146.536 209.508 149.125C204.723 151.829 211.885 157.922 215.439 160.833C223.032 167.054 225.099 167.459 223.869 165.263L220.984 160.214ZM217.037 168.445C217.037 168.445 210.899 157.039 207.074 159.339C203.094 161.734 209.289 166.719 212.368 169.102C218.93 174.183 220.694 174.479 219.593 172.65L217.037 168.445ZM213.224 174.646C213.224 174.646 208.33 162.649 204.285 164.529C200.074 166.461 205.702 172.103 208.51 174.801C214.499 180.552 216.238 181.035 215.324 179.096L213.224 174.646ZM233.774 144.591C233.774 144.591 242.655 128.845 236.093 126.353C229.266 123.777 228.693 134.577 228.532 139.877C228.184 151.185 229.472 153.401 230.786 150.735L233.774 144.591Z" fill="white"/>
<path d="M233.349 132.458C233.349 132.458 230.329 154.186 226.349 162.397C221.776 171.826 214.873 181.866 208.536 188.421" stroke="#CCCCCC" stroke-width="1.25197" stroke-linecap="round" stroke-linejoin="round"/>
<path d="M228.539 156.582L241.734 147.025" stroke="#CCCCCC" stroke-width="1.25197" stroke-linecap="round" stroke-linejoin="round"/>
<path d="M226.349 162.378L241.083 158.282" stroke="#CCCCCC" stroke-width="1.25197" stroke-linecap="round" stroke-linejoin="round"/>
<path d="M227.134 160.259L219.38 147.469" stroke="#CCCCCC" stroke-width="1.25197" stroke-linecap="round" stroke-linejoin="round"/>
<path d="M222.549 169.636L235.603 169.301" stroke="#CCCCCC" stroke-width="1.25197" stroke-linecap="round" stroke-linejoin="round"/>
<path d="M224.108 166.558L216.669 158.366" stroke="#CCCCCC" stroke-width="1.25197" stroke-linecap="round" stroke-linejoin="round"/>
<path d="M219.651 173.571L213.649 167.569" stroke="#CCCCCC" stroke-width="1.25197" stroke-linecap="round" stroke-linejoin="round"/>
<path d="M217.068 178.33L224.603 177.557" stroke="#CCCCCC" stroke-width="1.25197" stroke-linecap="round" stroke-linejoin="round"/>
<path d="M215.639 180.101L209.27 172.483" stroke="#CCCCCC" stroke-width="1.25197" stroke-linecap="round" stroke-linejoin="round"/>
<path d="M32.4595 137.874C31.1715 141.094 29.8062 138.518 30.0187 124.955C30.1218 118.605 30.5661 105.635 37.5922 108.488C44.3413 111.232 35.4477 130.416 35.4477 130.416L32.4595 137.874ZM42.1195 139.806C42.1195 139.806 56.7576 124.55 51.2707 119.765C45.552 114.78 40.9152 126.907 38.7578 132.883C34.1597 145.628 34.5847 148.519 36.8709 145.885L42.1195 139.806ZM45.2043 153.484C45.2043 153.484 58.6123 143.94 55.1025 139.484C51.4575 134.847 46.1574 143.451 43.6393 147.701C38.2748 156.782 38.1847 159.055 40.3163 157.361L45.2043 153.484ZM48.8364 167.137C48.8364 167.137 62.2252 157.574 58.7283 153.137C55.0768 148.5 49.7767 157.097 47.2651 161.354C41.9005 170.428 41.8039 172.708 43.9356 171.014L48.8364 167.137ZM25.4141 139.69C25.4141 139.69 6.66086 129.927 3.6083 136.541C0.433382 143.425 13.3713 144.468 19.7083 144.855C33.2323 145.692 35.8856 144.469 32.7171 143.013L25.4141 139.69ZM28.0545 150.432C28.0545 150.432 7.73634 144.597 6.0555 151.688C4.3167 159.062 17.2031 157.484 23.495 156.634C36.916 154.766 39.2795 153.04 35.8856 152.242L28.0545 150.432ZM32.7042 162.153C32.7042 162.153 15.3871 157.683 14.1313 163.718C12.8433 169.997 23.6947 168.387 28.9948 167.498C40.297 165.605 42.2547 164.091 39.3696 163.499L32.7042 162.153ZM35.4155 171.813C35.4155 171.813 18.6715 165.527 16.7845 171.394C14.8203 177.506 25.8005 177.055 31.1586 176.733C42.6025 176.05 44.6826 174.756 41.9005 173.854L35.4155 171.813ZM24.2034 122.798C24.2034 122.798 16.5591 99.0601 7.85226 103.381C-1.16374 107.889 9.25618 118.586 14.479 123.719C25.6202 134.667 29.0656 135.427 27.5973 131.608L24.2034 122.798Z" fill="white"/>
<path d="M11.5103 111.85C11.5103 111.85 30.7143 135.279 35.3061 147.006C40.5869 160.485 44.1804 175.664 44.8952 188.222" stroke="#CCCCCC" stroke-width="1.25197" stroke-linecap="round" stroke-linejoin="round"/>
<path d="M31.4871 139.349L34.1532 117.008" stroke="#CCCCCC" stroke-width="1.25197" stroke-linecap="round" stroke-linejoin="round"/>
<path d="M35.3062 146.999L44.9661 128.22" stroke="#CCCCCC" stroke-width="1.25197" stroke-linecap="round" stroke-linejoin="round"/>
<path d="M33.8955 144.217L13.6675 140.096" stroke="#CCCCCC" stroke-width="1.25197" stroke-linecap="round" stroke-linejoin="round"/>
<path d="M39.1055 157.658L51.0001 144.108" stroke="#CCCCCC" stroke-width="1.25197" stroke-linecap="round" stroke-linejoin="round"/>
<path d="M37.444 153.195L22.1748 153.059" stroke="#CCCCCC" stroke-width="1.25197" stroke-linecap="round" stroke-linejoin="round"/>
<path d="M40.3872 164.284L28.6729 164.742" stroke="#CCCCCC" stroke-width="1.25197" stroke-linecap="round" stroke-linejoin="round"/>
<path d="M42.7957 171.355L49.0682 162.996" stroke="#CCCCCC" stroke-width="1.25197" stroke-linecap="round" stroke-linejoin="round"/>
<path d="M43.2529 174.466L29.5486 173.783" stroke="#CCCCCC" stroke-width="1.25197" stroke-linecap="round" stroke-linejoin="round"/>
<path d="M81.4163 156.376C79.0528 157.265 79.7741 155.275 87.0835 148.732C90.516 145.66 97.6322 139.523 99.5642 144.662C101.425 149.601 86.8517 154.322 86.8517 154.322L81.4163 156.376ZM85.1322 162.449C85.1322 162.449 100.446 162.739 100.292 157.464C100.131 151.978 91.4047 155.468 87.1672 157.258C78.1512 161.077 76.7924 162.726 79.3169 162.649L85.1322 162.449ZM79.3684 170.821C79.3684 170.821 91.0312 173.262 91.6817 169.205C92.3257 164.986 85.1708 166.397 81.6739 167.15C74.1842 168.754 72.9542 169.81 74.8926 170.132L79.3684 170.821ZM73.8879 179.47C73.8879 179.47 85.5572 181.911 86.2012 177.854C86.8774 173.635 79.6968 175.039 76.1999 175.793C68.7295 177.403 67.4737 178.472 69.4186 178.781L73.8879 179.47ZM76.9856 153.53C76.9856 153.53 72.9606 138.75 67.9696 140.379C62.7468 142.073 68.5492 149.472 71.4601 153.034C77.6618 160.639 79.6196 161.451 78.8339 159.049L76.9856 153.53ZM72.5678 160.214C72.5678 160.214 65.6834 146.536 61.0917 149.125C56.3068 151.829 63.468 157.922 67.0294 160.833C74.6221 167.054 76.6894 167.459 75.4529 165.263L72.5678 160.214ZM68.62 168.445C68.62 168.445 62.4827 157.039 58.6574 159.339C54.6774 161.734 60.8727 166.719 63.951 169.102C70.5134 174.183 72.2844 174.479 71.1767 172.65L68.62 168.445ZM64.8076 174.646C64.8076 174.646 59.9196 162.649 55.8688 164.529C51.6571 166.461 57.2921 172.103 60.0935 174.801C66.0827 180.552 67.8215 181.035 66.907 179.096L64.8076 174.646ZM85.3576 144.591C85.3576 144.591 94.2448 128.845 87.6824 126.353C80.8496 123.777 80.2829 134.577 80.1154 139.877C79.7741 151.185 81.0557 153.401 82.3694 150.735L85.3576 144.591Z" fill="white"/>
<path d="M84.9583 132.458C84.9583 132.458 81.938 154.186 77.9581 162.397C73.3857 171.826 66.482 181.866 60.145 188.421" stroke="#CCCCCC" stroke-width="1.25197" stroke-linecap="round" stroke-linejoin="round"/>
<path d="M80.1477 156.582L93.3433 147.025" stroke="#CCCCCC" stroke-width="1.25197" stroke-linecap="round" stroke-linejoin="round"/>
<path d="M77.9583 162.378L92.693 158.282" stroke="#CCCCCC" stroke-width="1.25197" stroke-linecap="round" stroke-linejoin="round"/>
<path d="M78.7438 160.259L70.99 147.469" stroke="#CCCCCC" stroke-width="1.25197" stroke-linecap="round" stroke-linejoin="round"/>
<path d="M74.1584 169.636L87.2123 169.301" stroke="#CCCCCC" stroke-width="1.25197" stroke-linecap="round" stroke-linejoin="round"/>
<path d="M75.717 166.558L68.2788 158.366" stroke="#CCCCCC" stroke-width="1.25197" stroke-linecap="round" stroke-linejoin="round"/>
<path d="M71.2606 173.571L65.2585 167.569" stroke="#CCCCCC" stroke-width="1.25197" stroke-linecap="round" stroke-linejoin="round"/>
<path d="M68.678 178.33L76.2128 177.557" stroke="#CCCCCC" stroke-width="1.25197" stroke-linecap="round" stroke-linejoin="round"/>
<path d="M67.2548 180.101L60.8792 172.483" stroke="#CCCCCC" stroke-width="1.25197" stroke-linecap="round" stroke-linejoin="round"/>
<path d="M118.279 55.6285C118.279 55.6285 110.036 53.001 103.731 59.4925C97.4261 65.984 100.749 78.9478 100.749 83.5008C100.749 88.0539 94.9531 116.989 94.9531 116.989C94.9531 116.989 92.1453 127.505 99.8604 134.171C107.576 140.836 121.834 140.257 127.919 127.428C134.005 114.6 127.552 96.31 127.552 86.8561C127.552 77.4022 128.956 71.0845 126.85 64.2517C126.211 62.2359 125.1 60.4018 123.609 58.902C122.118 57.4022 120.291 56.2799 118.279 55.6285Z" fill="#263238" stroke="#263238" stroke-linecap="round" stroke-linejoin="round"/>
<path d="M115.832 60.5422C115.832 60.5422 107.885 70.4212 102.52 73.2097" stroke="white" stroke-linecap="round" stroke-linejoin="round"/>
<path d="M108.96 59.6858C108.96 59.6858 104.884 69.5583 101.232 72.3533" stroke="white" stroke-linecap="round" stroke-linejoin="round"/>
<path d="M131.829 93.6439C132.59 94.1776 133.229 94.867 133.705 95.6663C134.18 96.4656 134.48 97.3567 134.585 98.2807C135.055 101.565 131.552 109.158 130.85 112.912C130.186 117.47 129.759 122.06 129.568 126.662C129.568 127.834 133.561 145.196 134.263 149.421C134.965 153.645 133.909 163.589 133.323 164.316C132.737 165.044 131.094 161.618 130.978 159.39C130.863 157.162 126.522 140.031 124.88 134.873C123.238 129.714 123.701 122.907 123.701 122.907C123.701 122.907 125.936 107.303 125.936 101.32C125.936 95.3376 126.116 90.8618 126.116 90.8618L131.829 93.6439Z" fill="#92E3A9" stroke="#263238" stroke-linecap="round" stroke-linejoin="round"/>
<path d="M133.31 164.291C133.896 163.589 134.952 153.613 134.25 149.395C133.548 145.177 129.568 127.808 129.568 126.662C129.762 122.068 130.192 117.488 130.856 112.938C131.114 111.734 131.445 110.547 131.848 109.383C130.468 110.048 128.955 110.391 127.424 110.388C126.606 110.388 125.807 111.141 125.041 112.423C124.397 117.871 123.695 122.907 123.695 122.907C123.695 122.907 123.231 129.708 124.873 134.873C126.516 140.038 130.856 157.162 130.972 159.39C131.088 161.618 132.724 164.993 133.31 164.291Z" fill="white" stroke="#263238" stroke-linecap="round" stroke-linejoin="round"/>
<path d="M109.759 188.924C110.016 186.039 110.557 180.165 110.905 177.898C111.375 174.852 112.309 168.631 112.309 168.631L114.685 188.924H130.966C131.552 184.499 133.026 172.637 133.31 164.291C133.664 153.851 125.801 132.265 125.582 130.622C125.363 128.98 125.814 124.182 125.814 122.766C125.814 121.349 129.909 112.359 130.257 107.78C130.605 103.201 131.668 101.797 131.668 101.797L132.254 94.069C131.899 93.953 126.638 89.8121 121.357 88.273C118.146 87.3615 114.755 87.2817 111.504 88.0411C111.504 88.0411 103.879 91.4414 100.009 93.0836C96.1381 94.7258 92.9567 97.8943 92.8601 101.997C92.7635 106.099 100.363 123.583 101.071 124.878C101.78 126.172 99.5449 130.738 98.6046 133.089C97.6644 135.44 93.7939 143.882 91.2179 153.265C89.009 161.277 90.4838 182.806 90.9668 188.924H109.759Z" fill="#92E3A9" stroke="#263238" stroke-linecap="round" stroke-linejoin="round"/>
<path d="M113.417 121.639C113.417 121.639 119.432 122.36 125.453 116.583" stroke="#263238" stroke-linecap="round" stroke-linejoin="round"/>
<path d="M117.59 104.817C119.348 104.347 121.582 97.0893 121.814 93.3219C121.943 91.216 122.072 89.6447 122.014 88.4855C121.795 88.4146 121.57 88.3374 121.37 88.273C118.158 87.3615 114.768 87.2817 111.517 88.0411L108.413 89.4193C108.153 91.0874 108.333 92.7942 108.934 94.3716C110.203 97.8943 115.831 105.287 117.59 104.817Z" fill="white" stroke="#263238" stroke-linecap="round" stroke-linejoin="round"/>
<path d="M109.733 84.4411C109.733 84.4411 110.325 91.3513 110.68 93.045C111.034 94.7387 114.595 101.417 116.611 101.05C118.627 100.683 119.908 91.9566 119.908 91.1065C119.908 90.2565 120.146 83.3785 120.146 83.3785C120.146 83.3785 115.902 86.8626 109.733 84.4411Z" fill="white" stroke="#263238" stroke-linecap="round" stroke-linejoin="round"/>
<path d="M98.1152 94.2557C98.1152 94.2557 93.3109 94.494 90.6126 99.8907C87.9142 105.287 91.0762 108.907 92.1324 111.032C93.1886 113.157 96.1252 121.825 97.059 124.408C97.9928 126.99 99.8797 130.036 103.164 134.261C106.449 138.486 113.365 147.515 113.365 147.515L115.246 150.799C115.246 150.799 118.414 154.438 118.762 154.553C119.11 154.669 121.228 157.368 122.046 155.726C122.864 154.083 122.046 148.223 122.046 148.223C122.046 148.223 123.334 150.799 123.811 150.213C124.287 149.627 123.688 148.339 123.225 146.929C122.761 145.518 118.42 142.826 117.474 142.704C116.527 142.582 115.361 141.416 113.958 138.602C112.554 135.787 111.491 130.874 109.263 127.924C107.035 124.975 104.111 120.653 104.111 120.653C104.111 120.653 100.826 108.92 100.826 108.45C101.066 106.258 100.745 104.042 99.8926 102.01" fill="#92E3A9"/>
<path d="M98.1152 94.2557C98.1152 94.2557 93.3109 94.494 90.6126 99.8907C87.9142 105.287 91.0762 108.907 92.1324 111.032C93.1886 113.157 96.1252 121.825 97.059 124.408C97.9928 126.99 99.8797 130.036 103.164 134.261C106.449 138.486 113.365 147.515 113.365 147.515L115.246 150.799C115.246 150.799 118.414 154.438 118.762 154.553C119.11 154.669 121.228 157.368 122.046 155.726C122.864 154.083 122.046 148.223 122.046 148.223C122.046 148.223 123.334 150.799 123.811 150.213C124.287 149.627 123.688 148.339 123.225 146.929C122.761 145.518 118.42 142.826 117.474 142.704C116.527 142.582 115.361 141.416 113.958 138.602C112.554 135.787 111.491 130.874 109.263 127.924C107.035 124.975 104.111 120.653 104.111 120.653C104.111 120.653 100.826 108.92 100.826 108.45C101.066 106.258 100.745 104.042 99.8926 102.01" stroke="#263238" stroke-linecap="round" stroke-linejoin="round"/>
<path d="M117.474 142.704C116.533 142.588 115.361 141.416 113.957 138.602C112.554 135.787 111.491 130.874 109.263 127.924C107.034 124.974 104.111 120.653 104.111 120.653C104.111 120.653 101.889 112.706 101.103 109.634C96.7884 109.029 93.942 109.898 92.1323 111.006C93.1885 113.118 96.1251 121.8 97.0589 124.382C97.9927 126.964 99.8796 130.011 103.164 134.235C106.448 138.46 113.365 147.489 113.365 147.489L115.245 150.773C115.245 150.773 118.414 154.412 118.762 154.528C119.109 154.644 121.228 157.342 122.046 155.7C122.864 154.058 122.046 148.197 122.046 148.197C122.046 148.197 123.334 150.773 123.811 150.187C124.287 149.601 123.688 148.313 123.225 146.903C122.761 145.492 118.42 142.826 117.474 142.704Z" fill="white" stroke="#263238" stroke-linecap="round" stroke-linejoin="round"/>
<path d="M109.759 188.924C110.016 186.039 110.557 180.165 110.905 177.898C111.375 174.852 112.309 168.631 112.309 168.631L114.685 188.924H130.966C131.552 184.499 133.026 172.637 133.31 164.291C133.458 159.944 132.176 153.658 130.618 147.688C116.856 150.702 101.251 148.519 93.1499 146.948C92.4673 148.963 91.7975 151.082 91.2179 153.265C89.009 161.277 90.4838 182.806 90.9668 188.924H109.759Z" fill="#263238" stroke="#263238" stroke-linecap="round" stroke-linejoin="round"/>
<path d="M105.656 74.15C105.656 74.15 104.607 73.6799 104.607 75.7858C104.607 77.8917 106.944 79.2891 106.944 79.2891L105.656 74.15Z" fill="white" stroke="#263238" stroke-linecap="round" stroke-linejoin="round"/>
<path d="M117.706 62.5837C117.706 62.5837 113.958 67.8645 110.667 69.9769C108.969 71.0932 107.208 72.1103 105.393 73.023C105.393 73.023 107.035 79.8301 107.737 82.039C108.439 84.2479 110.545 88.1505 114.769 88.3824C118.994 88.6142 120.874 84.1513 121.699 82.039C122.168 80.9475 122.419 79.775 122.439 78.5871C123.032 78.2125 123.538 77.7151 123.922 77.1286C124.306 76.542 124.561 75.8799 124.668 75.1868C124.899 72.9586 124.313 73.0745 124.313 73.0745C124.313 73.0745 123.669 73.8022 122.272 72.7074C121.138 71.8638 117.332 65.7522 117.706 62.5837Z" fill="white" stroke="#263238" stroke-linecap="round" stroke-linejoin="round"/>
<path d="M108.76 75.921C108.76 75.921 110.416 74.7103 112.837 75.921" stroke="#263238" stroke-linecap="round" stroke-linejoin="round"/>
<path d="M116.25 76.14C116.25 76.14 118.234 74.3754 120.327 75.8115" stroke="#263238" stroke-linecap="round" stroke-linejoin="round"/>
<path d="M108.432 73.2742C108.432 73.2742 109.314 71.6255 112.296 72.3983" stroke="#263238" stroke-linecap="round" stroke-linejoin="round"/>
<path d="M116.25 72.5078C116.925 72.0157 117.757 71.7884 118.588 71.8691C119.419 71.9498 120.191 72.333 120.758 72.9457" stroke="#263238" stroke-linecap="round" stroke-linejoin="round"/>
<path d="M115.922 79.7721C115.922 79.7721 114.157 80.9828 113.391 79.7721" stroke="#263238" stroke-linecap="round" stroke-linejoin="round"/>
<path d="M112.728 82.3096C112.728 82.3096 114.93 83.1854 116.031 82.2001" stroke="#263238" stroke-linecap="round" stroke-linejoin="round"/>
<path d="M75.5044 145.615C75.5044 145.615 80.6564 157.052 81.8864 159.358C83.1165 161.663 84.5461 168.226 84.72 172.122C84.8939 176.018 84.72 176.823 83.8377 176.733C82.9555 176.643 82.5948 171.768 82.5948 170.969V169.733C82.5948 169.733 82.1505 174.337 81.4421 175.226C80.7337 176.115 79.7548 177.087 79.6711 176.559C79.5873 176.031 79.8449 175.136 80.1991 173.809C80.4131 172.789 80.4739 171.743 80.3795 170.705C80.3795 170.705 79.8449 173.184 78.6085 174.073C77.372 174.962 76.0325 175.316 76.4768 174.608C76.9212 173.899 78.0739 173.101 78.338 172.212C78.5205 171.398 78.6113 170.567 78.6085 169.733C78.6085 169.733 76.9212 172.476 76.2128 172.92C75.5044 173.365 75.5044 172.392 75.9487 171.948C76.3931 171.504 77.3655 168.49 77.3655 168.49C77.3655 168.49 77.0951 168.309 75.8586 165.566C74.6221 162.822 73.9266 158.025 73.5531 156.163C73.1795 154.302 72.4905 151.823 72.4905 151.823L65.6641 140.385C65.6641 140.385 65.1295 137.636 67.6991 137.165C70.2687 136.695 75.5044 145.615 75.5044 145.615Z" fill="white"/>
<path opacity="0.15" d="M75.5044 145.615C75.5044 145.615 80.6564 157.052 81.8864 159.358C83.1165 161.663 84.5461 168.226 84.72 172.122C84.8939 176.018 84.72 176.823 83.8377 176.733C82.9555 176.643 82.5948 171.768 82.5948 170.969V169.733C82.5948 169.733 82.1505 174.337 81.4421 175.226C80.7337 176.115 79.7548 177.087 79.6711 176.559C79.5873 176.031 79.8449 175.136 80.1991 173.809C80.4131 172.789 80.4739 171.743 80.3795 170.705C80.3795 170.705 79.8449 173.184 78.6085 174.073C77.372 174.962 76.0325 175.316 76.4768 174.608C76.9212 173.899 78.0739 173.101 78.338 172.212C78.5205 171.398 78.6113 170.567 78.6085 169.733C78.6085 169.733 76.9212 172.476 76.2128 172.92C75.5044 173.365 75.5044 172.392 75.9487 171.948C76.3931 171.504 77.3655 168.49 77.3655 168.49C77.3655 168.49 77.0951 168.309 75.8586 165.566C74.6221 162.822 73.9266 158.025 73.5531 156.163C73.1795 154.302 72.4905 151.823 72.4905 151.823L65.6641 140.385C65.6641 140.385 65.1295 137.636 67.6991 137.165C70.2687 136.695 75.5044 145.615 75.5044 145.615Z" fill="black"/>
<path d="M75.5044 145.615C75.5044 145.615 80.6564 157.052 81.8864 159.358C83.1165 161.663 84.5461 168.226 84.72 172.122C84.8939 176.018 84.72 176.823 83.8377 176.733C82.9555 176.643 82.5948 171.768 82.5948 170.969V169.733C82.5948 169.733 82.1505 174.337 81.4421 175.226C80.7337 176.115 79.7548 177.087 79.6711 176.559C79.5873 176.031 79.8449 175.136 80.1991 173.809C80.4131 172.789 80.4739 171.743 80.3795 170.705C80.3795 170.705 79.8449 173.184 78.6085 174.073C77.372 174.962 76.0325 175.316 76.4768 174.608C76.9212 173.899 78.0739 173.101 78.338 172.212C78.5205 171.398 78.6113 170.567 78.6085 169.733C78.6085 169.733 76.9212 172.476 76.2128 172.92C75.5044 173.365 75.5044 172.392 75.9487 171.948C76.3931 171.504 77.3655 168.49 77.3655 168.49C77.3655 168.49 77.0951 168.309 75.8586 165.566C74.6221 162.822 73.9266 158.025 73.5531 156.163C73.1795 154.302 72.4905 151.823 72.4905 151.823L65.6641 140.385C65.6641 140.385 65.1295 137.636 67.6991 137.165C70.2687 136.695 75.5044 145.615 75.5044 145.615Z" stroke="#263238" stroke-linecap="round" stroke-linejoin="round"/>
<path d="M81.9121 162.726C81.9121 162.726 82.8009 167.073 82.7107 169.018C82.6205 170.963 83.0649 171.948 82.4402 171.948C81.8155 171.948 81.6481 171.503 81.0234 169.552C80.6122 168.105 80.3447 166.621 80.2249 165.121C80.2249 165.121 78.0095 165.121 77.2109 161.837" fill="white"/>
<path opacity="0.15" d="M81.9121 162.726C81.9121 162.726 82.8009 167.073 82.7107 169.018C82.6205 170.963 83.0649 171.948 82.4402 171.948C81.8155 171.948 81.6481 171.503 81.0234 169.552C80.6122 168.105 80.3447 166.621 80.2249 165.121C80.2249 165.121 78.0095 165.121 77.2109 161.837" fill="black"/>
<path d="M81.9121 162.726C81.9121 162.726 82.8009 167.073 82.7107 169.018C82.6205 170.963 83.0649 171.948 82.4402 171.948C81.8155 171.948 81.6481 171.503 81.0234 169.552C80.6122 168.105 80.3447 166.621 80.2249 165.121C80.2249 165.121 78.0095 165.121 77.2109 161.837" stroke="#263238" stroke-linecap="round" stroke-linejoin="round"/>
<path d="M42.3384 188.924H74.9763C75.1373 182.819 76.2064 142.942 76.5284 141.158C76.8826 139.226 78.6342 121.001 78.8081 113.82C78.982 106.64 75.8264 96.2907 75.8264 95.5888C75.8264 94.8868 75.3048 90.5076 70.3975 86.8239C65.4902 83.1403 61.6326 83.1467 60.5829 83.6683C60.5829 83.6683 56.7189 86.3023 50.588 92.7874C44.4572 99.2724 42.3513 104.528 42.3513 114.516C42.3559 120.561 42.8838 126.594 43.9291 132.548C43.9291 132.548 41.9971 163.743 41.9971 164.445C41.9971 165.147 42.2804 184.757 42.3384 188.924Z" fill="white" stroke="#263238" stroke-linecap="round" stroke-linejoin="round"/>
<path d="M57.1503 118.406C57.8431 118.404 58.5354 118.365 59.224 118.29C66.7331 117.472 73.2632 109.795 77.5716 103.162C77.3719 102.203 77.1723 101.282 76.9727 100.438C72.909 107.065 66.3402 115.572 59.0179 116.371C48.8234 117.478 44.2059 109.448 42.9179 106.852C42.7376 107.844 42.6024 108.887 42.5122 109.989C44.792 113.44 49.3966 118.406 57.1503 118.406Z" fill="#263238"/>
<path d="M54.7031 102.911L56.5707 103.407C58.4958 96.3977 62.2783 90.0386 67.5187 85.0014C66.8948 84.6726 66.2493 84.3864 65.5867 84.1449C60.3728 89.3352 56.6189 95.8079 54.7031 102.911Z" fill="#263238"/>
<path d="M56.5387 112.152C56.9766 111.927 66.1021 107.174 75.7363 94.7645C75.5868 93.9865 75.3492 93.2282 75.0279 92.504C65.3293 105.384 55.7659 110.369 55.6628 110.42L56.5387 112.152Z" fill="#263238"/>
<path d="M47.0139 105.165L48.9459 104.875C48.9459 104.824 48.3856 100.258 52.8807 90.4561C52.1594 91.1709 51.406 91.9437 50.6074 92.7873C50.0922 93.3283 49.6156 93.8628 49.1584 94.3973C46.5244 101.546 46.9881 104.972 47.0139 105.165Z" fill="#263238"/>
<path d="M62.9462 133.791C51.8437 135.233 46.2022 132.902 43.6777 131.112C43.8259 132.052 43.9289 132.574 43.9289 132.574C43.9289 132.574 43.9289 132.915 43.8709 133.533C46.3439 134.892 50.3109 136.18 56.3839 136.18C58.6628 136.17 60.9387 136.013 63.1974 135.71C68.3151 135.052 73.2345 133.313 77.6294 130.61C77.7067 129.798 77.7775 128.967 77.8484 128.124C73.3934 131.154 68.2889 133.095 62.9462 133.791Z" fill="#263238"/>
<path d="M62.3733 145.679C67.477 144.381 72.3359 142.263 76.7602 139.407C76.8375 138.711 76.9277 137.861 77.0307 136.889C72.4348 140.061 67.3164 142.4 61.9096 143.799C54.4327 145.634 47.1749 143.586 43.3431 142.111C43.3044 142.755 43.2593 143.451 43.2207 144.146C47.1923 145.639 51.3944 146.426 55.637 146.471C57.9059 146.476 60.1673 146.21 62.3733 145.679Z" fill="#263238"/>
<path d="M42.3579 158.302C42.3128 158.997 42.2741 159.654 42.2419 160.234C47.2208 161.429 52.3202 162.049 57.4403 162.082C63.736 162.15 69.987 161.018 75.8588 158.746C75.8588 158.038 75.9038 157.329 75.9231 156.64C62.9916 162.082 49.1585 159.957 42.3579 158.302Z" fill="#263238"/>
<path d="M63.7836 151.926C56.853 153.606 49.5974 153.383 42.7828 151.282C42.7441 151.958 42.699 152.628 42.6604 153.291C46.4163 154.439 50.3249 155.011 54.2524 154.985C57.6145 154.981 60.9653 154.597 64.2408 153.839C68.3912 152.877 72.3999 151.383 76.1677 149.395C76.1677 148.596 76.2257 147.836 76.2514 147.128C72.342 149.306 68.1446 150.921 63.7836 151.926Z" fill="#263238"/>
<path d="M58.374 124.73C50.4528 125.129 45.333 122.205 42.4929 119.797C42.538 120.686 42.596 121.548 42.6604 122.373C46.831 125.292 51.8225 126.807 56.9121 126.7C57.4208 126.7 57.9425 126.7 58.4706 126.662C66.2437 126.269 73.1216 122.869 78.6793 116.841C78.7437 115.714 78.7888 114.683 78.8081 113.827V113.698C74.2679 119.333 67.6798 124.253 58.374 124.73Z" fill="#263238"/>
<path d="M71.5308 87.7642C71.1766 87.4487 70.8095 87.1202 70.3974 86.824C65.4901 83.1467 61.6325 83.1467 60.5828 83.6684C58.5374 85.1653 56.6006 86.8052 54.7868 88.5757C54.6026 89.3658 54.602 90.1877 54.7851 90.9782C54.9682 91.7686 55.3301 92.5065 55.843 93.1352C59.1725 97.3405 70.011 113.466 72.8446 109.963C75.6782 106.46 74.944 96.8189 71.7884 88.4018C71.7111 88.1828 71.6081 87.9703 71.5308 87.7642Z" fill="#92E3A9" stroke="#263238" stroke-linecap="round" stroke-linejoin="round"/>
<path d="M61.3043 106.279C61.3043 106.279 70.7711 126.436 72.6966 129.592C73.5452 131.091 74.5443 132.5 75.6783 133.797C75.6783 133.797 84.0503 136.612 91.2309 139.246C98.4115 141.879 110.892 145.338 113.513 146.065C116.134 146.793 120.52 146.767 121.241 146.767C121.963 146.767 130.354 148.699 130.901 149.047C131.449 149.395 130.727 150.097 129.497 150.451C128.267 150.805 124.242 151.147 122.31 151.849C120.378 152.551 118.807 152.377 116.006 151.675C113.798 150.996 111.679 150.055 109.694 148.873C109.694 148.873 86.6972 147.27 81.2683 146.626C75.8393 145.982 69.6763 145.222 67.2484 142.42C62.376 136.92 57.8793 131.098 53.7888 124.994C50.4915 120.009 44.4572 113.009 46.7434 106.666" fill="white"/>
<path d="M61.3043 106.279C61.3043 106.279 70.7711 126.436 72.6966 129.592C73.5452 131.091 74.5443 132.5 75.6783 133.797C75.6783 133.797 84.0503 136.612 91.2309 139.246C98.4115 141.879 110.892 145.338 113.513 146.065C116.134 146.793 120.52 146.767 121.241 146.767C121.963 146.767 130.354 148.699 130.901 149.047C131.449 149.395 130.727 150.097 129.497 150.451C128.267 150.805 124.242 151.147 122.31 151.849C120.378 152.551 118.807 152.377 116.006 151.675C113.798 150.996 111.679 150.055 109.694 148.873C109.694 148.873 86.6972 147.27 81.2683 146.626C75.8393 145.982 69.6763 145.222 67.2484 142.42C62.376 136.92 57.8793 131.098 53.7888 124.994C50.4915 120.009 44.4572 113.009 46.7434 106.666" stroke="#263238" stroke-linecap="round" stroke-linejoin="round"/>
<path d="M121.196 146.768C120.494 146.768 116.115 146.768 113.468 146.066C110.821 145.364 98.3407 141.873 91.1601 139.246C83.9796 136.618 75.6076 133.797 75.6076 133.797C74.4735 132.5 73.4744 131.091 72.6258 129.592C71.8337 128.304 69.76 124.099 67.5898 119.623C60.6024 121.452 57.0861 124.775 55.3538 127.351C59.0134 132.586 62.9675 137.608 67.1969 142.395C69.6506 145.196 75.7814 145.898 81.2168 146.6C86.6521 147.302 109.611 148.88 109.611 148.88C111.595 150.062 113.714 151.002 115.922 151.681C118.723 152.383 120.301 152.557 122.227 151.855C124.152 151.153 128.19 150.805 129.414 150.458C130.637 150.11 131.346 149.401 130.818 149.054C130.29 148.706 121.924 146.768 121.196 146.768Z" fill="white"/>
<path opacity="0.15" d="M121.196 146.768C120.494 146.768 116.115 146.768 113.468 146.066C110.821 145.364 98.3407 141.873 91.1601 139.246C83.9796 136.618 75.6076 133.797 75.6076 133.797C74.4735 132.5 73.4744 131.091 72.6258 129.592C71.8337 128.304 69.76 124.099 67.5898 119.623C60.6024 121.452 57.0861 124.775 55.3538 127.351C59.0134 132.586 62.9675 137.608 67.1969 142.395C69.6506 145.196 75.7814 145.898 81.2168 146.6C86.6521 147.302 109.611 148.88 109.611 148.88C111.595 150.062 113.714 151.002 115.922 151.681C118.723 152.383 120.301 152.557 122.227 151.855C124.152 151.153 128.19 150.805 129.414 150.458C130.637 150.11 131.346 149.401 130.818 149.054C130.29 148.706 121.924 146.768 121.196 146.768Z" fill="black"/>
<path d="M121.196 146.768C120.494 146.768 116.115 146.768 113.468 146.066C110.821 145.364 98.3407 141.873 91.1602 139.246C83.9796 136.618 75.6076 133.797 75.6076 133.797C74.4735 132.5 73.4744 131.091 72.6258 129.592C71.8337 128.304 69.76 124.099 67.5898 119.623C60.6024 121.452 57.0861 124.775 55.3538 127.351C59.0134 132.586 62.9675 137.608 67.1969 142.395C69.6506 145.196 75.7814 145.898 81.2168 146.6C86.6521 147.302 109.611 148.88 109.611 148.88C111.595 150.062 113.714 151.002 115.922 151.681C118.723 152.383 120.301 152.557 122.227 151.855C124.152 151.153 128.19 150.805 129.414 150.458C130.637 150.11 131.346 149.401 130.818 149.054C130.29 148.706 121.924 146.768 121.196 146.768Z" stroke="#263238" stroke-linecap="round" stroke-linejoin="round"/>
<path d="M74.9762 188.924C75.0535 185.884 75.3626 174.401 75.6911 163.447C71.0483 165.26 66.1798 166.43 61.2204 166.925C50.9164 168.129 44.9787 165.637 42.0421 163.705C42.0421 164.136 42.0034 164.407 42.0034 164.465C42.0034 165.109 42.2803 184.751 42.3383 188.937L74.9762 188.924Z" fill="#92E3A9" stroke="#263238" stroke-linecap="round" stroke-linejoin="round"/>
<path d="M66.7652 187.462C65.1681 181.402 69.0321 173.674 63.4551 169.662" stroke="#263238" stroke-linecap="round" stroke-linejoin="round"/>
<path d="M66.7654 173.519L73.9395 166.628" stroke="#263238" stroke-linecap="round" stroke-linejoin="round"/>
<path d="M48.7783 173.564L48.5916 187.462" stroke="#263238" stroke-linecap="round" stroke-linejoin="round"/>
<path d="M48.8428 168.56L48.8105 171.098" stroke="#263238" stroke-linecap="round" stroke-linejoin="round"/>
<path d="M77.5974 55.4096C80.4479 56.1652 82.9668 57.846 84.7587 60.1881C85.9739 61.7432 86.7978 63.5676 87.1608 65.5075C88.0173 70.7239 85.0807 72.3339 86.0274 74.7039C86.9741 77.0738 87.9207 78.3038 87.1608 79.4437C86.4009 80.5836 84.0374 80.7703 83.6575 80.8669C83.2775 80.9635 82.5176 85.317 81.0042 87.2168C79.4908 89.1166 74.1778 86.9334 74.1778 86.9334C74.1778 86.9334 72.0011 90.63 71.3377 91.86C70.6744 93.09 71.9817 100.483 71.0479 103.8C70.1141 107.116 67.9245 103.516 63.7514 98.3064C59.5783 93.0965 57.6849 88.8268 57.8781 87.4035C58.0713 85.9803 61.3815 82.6637 61.9547 81.4336C62.5278 80.2036 62.8047 79.6304 62.5214 78.497C62.238 77.3636 58.9214 72.701 58.9214 66.744C58.9214 60.787 63.6548 55.0876 69.9145 54.6111C72.5022 54.4412 75.1 54.7112 77.5974 55.4096Z" fill="white"/>
<path opacity="0.15" d="M77.5974 55.4096C80.4479 56.1652 82.9668 57.846 84.7587 60.1881C85.9739 61.7432 86.7978 63.5676 87.1608 65.5075C88.0173 70.7239 85.0807 72.3339 86.0274 74.7039C86.9741 77.0738 87.9207 78.3038 87.1608 79.4437C86.4009 80.5836 84.0374 80.7703 83.6575 80.8669C83.2775 80.9635 82.5176 85.317 81.0042 87.2168C79.4908 89.1166 74.1778 86.9334 74.1778 86.9334C74.1778 86.9334 72.0011 90.63 71.3377 91.86C70.6744 93.09 71.9817 100.483 71.0479 103.8C70.1141 107.116 67.9245 103.516 63.7514 98.3064C59.5783 93.0965 57.6849 88.8268 57.8781 87.4035C58.0713 85.9803 61.3815 82.6637 61.9547 81.4336C62.5278 80.2036 62.8047 79.6304 62.5214 78.497C62.238 77.3636 58.9214 72.701 58.9214 66.744C58.9214 60.787 63.6548 55.0876 69.9145 54.6111C72.5022 54.4412 75.1 54.7112 77.5974 55.4096Z" fill="black"/>
<path d="M77.5974 55.4096C80.4479 56.1652 82.9668 57.846 84.7587 60.1881C85.9739 61.7432 86.7978 63.5676 87.1608 65.5075C88.0173 70.7239 85.0807 72.3339 86.0274 74.7039C86.9741 77.0738 87.9207 78.3038 87.1608 79.4437C86.4009 80.5836 84.0374 80.7703 83.6575 80.8669C83.2775 80.9635 82.5176 85.317 81.0042 87.2168C79.4908 89.1166 74.1778 86.9334 74.1778 86.9334C74.1778 86.9334 72.0011 90.63 71.3377 91.86C70.6744 93.09 71.9817 100.483 71.0479 103.8C70.1141 107.116 67.9245 103.516 63.7514 98.3064C59.5783 93.0965 57.6849 88.8268 57.8781 87.4035C58.0713 85.9803 61.3815 82.6637 61.9547 81.4336C62.5278 80.2036 62.8047 79.6304 62.5214 78.497C62.238 77.3636 58.9214 72.701 58.9214 66.744C58.9214 60.787 63.6548 55.0876 69.9145 54.6111C72.5022 54.4412 75.1 54.7112 77.5974 55.4096Z" stroke="#263238" stroke-linecap="round" stroke-linejoin="round"/>
<path d="M78.7308 59.7309C81.0106 58.6103 82.627 58.6425 83.6832 58.9581C82.0056 57.2559 79.905 56.0312 77.5974 55.4096C75.0999 54.7112 72.5022 54.4412 69.9145 54.6111C63.6548 55.0876 58.9214 60.7741 58.9214 66.744C58.9214 72.7139 62.238 77.3571 62.5213 78.497C62.6229 78.8725 62.647 79.2647 62.5922 79.6498C67.1002 80.5449 68.5749 78.2909 68.5749 78.2909C68.0534 78.3564 67.5239 78.3148 67.019 78.1687C66.514 78.0225 66.0442 77.7748 65.6383 77.4408C64.3052 76.301 64.3052 71.9411 65.9217 69.9511C67.5381 67.9612 69.1417 70.711 69.1417 72.321C69.1417 73.931 69.9016 75.2577 70.6615 75.0709C71.4214 74.8842 71.2282 73.081 71.5116 71.9411C71.7949 70.8012 75.1115 69.101 75.8715 68.1544C76.6314 67.2077 75.4915 66.3512 74.2615 64.9344C73.0314 63.5176 74.0811 62.0042 78.7308 59.7309Z" fill="#263238" stroke="#263238" stroke-linecap="round" stroke-linejoin="round"/>
<path d="M68.3882 78.5872C68.3882 78.5872 68.3882 81.2469 70.0046 82.947" stroke="#263238" stroke-linecap="round" stroke-linejoin="round"/>
<path d="M83.1488 73.7894C82.3466 73.4497 81.4714 73.319 80.605 73.4094" stroke="#263238" stroke-linecap="round" stroke-linejoin="round"/>
<path d="M84.5462 71.5032C84.5462 71.5032 83.1487 69.0882 80.4761 70.9944" stroke="#263238" stroke-linecap="round" stroke-linejoin="round"/>
<path d="M81.2681 82.1806C80.6872 82.2305 80.1066 82.0819 79.6211 81.759C79.1356 81.4362 78.7741 80.9582 78.5955 80.4032" stroke="#263238" stroke-linecap="round" stroke-linejoin="round"/>
<path d="M62.8822 109.68L61.6715 107.104C53.8855 107.239 49.326 110.143 46.75 112.9C47.028 113.816 47.3768 114.71 47.7933 115.572C49.8219 112.938 54.1689 109.493 62.8822 109.68Z" fill="#263238"/>
<path d="M65.5802 115.34L64.3695 112.803C57.1374 113.189 52.2752 115.855 49.2935 118.303C49.7443 119.05 50.2273 119.784 50.7103 120.499C53.4601 118.18 58.2451 115.475 65.5802 115.34Z" fill="#263238"/>
<path d="M149.41 132.548C150.221 134.976 150.762 143.612 150.762 148.204C150.762 152.029 148.315 179.85 147.504 188.924H184.096C184.534 180.069 185.841 153.459 185.841 150.09C185.841 146.04 184.489 129.444 186.247 123.641C188.005 117.839 190.021 102.595 186.891 97.8814C183.761 93.1673 172.079 90.4625 168.543 89.2454C165.008 88.0282 159.772 87.3584 157.209 88.6014C157.209 88.6014 150.196 92.5169 145.874 96.5612C141.553 100.606 139.673 106.82 140.478 111.811C141.283 116.802 148.599 130.12 149.41 132.548Z" fill="white" stroke="#263238" stroke-linecap="round" stroke-linejoin="round"/>
<path d="M181.204 93.631C179.627 92.9026 178.013 92.2577 176.368 91.699C170.411 106.894 161.04 120.516 148.979 131.511C149.178 131.955 149.326 132.316 149.41 132.561C149.816 134.14 150.079 135.752 150.196 137.378C163.974 125.569 174.625 110.543 181.204 93.631Z" fill="#263238"/>
<path d="M188.34 111.206C188.656 107.99 188.595 104.748 188.159 101.546C180.644 114.239 167.648 133.598 150.749 148.751C150.704 150.084 150.537 152.686 150.286 155.983C166.733 142.369 179.742 124.768 188.34 111.206Z" fill="#263238"/>
<path d="M184.096 188.924C184.405 182.619 185.158 167.324 185.564 157.812C167.757 161.219 155.238 157.979 150.266 156.234C149.506 166.261 148.083 182.413 147.503 188.924H184.096Z" fill="#263238" stroke="#263238" stroke-linecap="round" stroke-linejoin="round"/>
<path d="M161.82 104.663C166.707 104.663 170.668 100.831 170.668 96.1039C170.668 91.3771 166.707 87.5452 161.82 87.5452C156.933 87.5452 152.971 91.3771 152.971 96.1039C152.971 100.831 156.933 104.663 161.82 104.663Z" fill="#92E3A9" stroke="#263238" stroke-linecap="round" stroke-linejoin="round"/>
<path d="M153.731 85.3234C153.731 85.3234 155.212 90.5848 155.212 93.6954C155.212 96.8059 158.587 103.954 164.119 100.715C169.651 97.4756 166.817 90.0568 165.87 87.7577C165.199 86.0013 164.658 84.1974 164.254 82.361C164.254 82.361 162.496 85.581 159.102 85.7355C157.301 85.8429 155.494 85.7043 153.731 85.3234Z" fill="white" stroke="#263238" stroke-linecap="round" stroke-linejoin="round"/>
<path d="M144.605 66.2223C144.605 66.2223 143.672 68.5472 144.837 70.4083C146.003 72.2695 147.6 74.8197 147.6 74.8197L147.368 64.5995C147.368 64.5995 145.069 62.7383 144.605 66.2223Z" fill="#263238" stroke="#263238" stroke-linecap="round" stroke-linejoin="round"/>
<path d="M147.6 72.4949C147.6 72.4949 145.739 73.1968 146.666 76.2108C147.594 79.2247 148.991 78.3038 148.991 78.3038L147.6 72.4949Z" fill="white" stroke="#263238" stroke-linecap="round" stroke-linejoin="round"/>
<path d="M145.9 67.2463C145.9 67.2463 147.523 75.6183 148.476 79.7914C149.429 83.9645 154.549 87.7513 157.247 88.5627C159.946 89.3741 163.456 86.4053 164.267 84.6536C165.078 82.9019 165.478 78.9864 165.478 78.9864C165.478 78.9864 168.447 77.7693 168.698 74.6652C168.949 71.5611 168.157 70.6209 166.54 70.2151L165.323 69.6742C165.323 69.6742 165.999 64.6832 164.248 61.5791C162.496 58.475 156.288 62.5258 153.049 63.466C149.809 64.4063 145.494 64.1422 145.9 67.2463Z" fill="white" stroke="#263238" stroke-linecap="round" stroke-linejoin="round"/>
<path d="M153.731 73.3192C153.731 73.3192 153.087 78.175 153.995 78.5807C154.903 78.9864 156.694 78.0397 157.099 77.9045" stroke="#263238" stroke-linecap="round" stroke-linejoin="round"/>
<path d="M156.294 81.5818C156.294 81.5818 160.068 82.1227 161.556 77.8015" stroke="#263238" stroke-linecap="round" stroke-linejoin="round"/>
<path d="M149.139 72.2373C149.44 71.7718 149.864 71.3993 150.365 71.1616C150.865 70.9238 151.422 70.8303 151.973 70.8914" stroke="#263238" stroke-linecap="round" stroke-linejoin="round"/>
<path d="M155.618 70.2151C155.618 70.2151 158.316 68.8627 159.932 70.3504" stroke="#263238" stroke-linecap="round" stroke-linejoin="round"/>
<path d="M151.653 75.7411C152.021 75.6771 152.215 75.0287 152.087 74.2929C151.96 73.557 151.558 73.0123 151.19 73.0762C150.822 73.1402 150.627 73.7886 150.755 74.5244C150.883 75.2603 151.285 75.805 151.653 75.7411Z" fill="#263238"/>
<path d="M157.591 74.5296C157.959 74.4657 158.154 73.8173 158.026 73.0814C157.898 72.3456 157.496 71.8008 157.128 71.8648C156.76 71.9287 156.566 72.5771 156.693 73.313C156.821 74.0489 157.223 74.5936 157.591 74.5296Z" fill="#263238"/>
<path d="M161.285 63.6013C157.704 65.2819 153.948 66.5606 150.086 67.4137C144.148 68.6245 141.45 67.2785 141.714 64.3097C141.978 61.3408 149.674 54.8622 156.687 54.8622C163.7 54.8622 166.134 58.0822 166.54 61.4761C166.761 64.3956 166.761 67.3278 166.54 70.2473L165.323 71.999C165.323 71.999 165.632 70.6337 163.7 69.5389C161.768 68.4441 160.338 66.4349 161.285 63.6013Z" fill="#263238" stroke="#263238" stroke-linecap="round" stroke-linejoin="round"/>
<path d="M198.837 73.2485C200.157 74.2595 198.605 78.4842 202.959 81.8716C212.979 89.664 218.775 94.9384 219.844 106.517C221.016 119.14 214.235 124.047 216.341 128.252C218.447 132.458 221.248 137.365 216.805 141.132C212.361 144.9 205.122 148.146 199.05 139.265C192.977 130.384 189.699 110.755 187.129 99.9809C184.559 89.2068 180.354 84.0934 181.05 79.418C181.732 74.91 185.41 71.69 189.808 70.9107C191.393 70.6338 193.018 70.6992 194.576 71.1024C196.133 71.5056 197.586 72.2373 198.837 73.2485Z" fill="#263238" stroke="#263238" stroke-linecap="round" stroke-linejoin="round"/>
<path d="M186.768 118.116L168.041 131.814C168.041 131.814 138.05 142.53 136.285 143.077C134.521 143.625 126.11 145.112 124.346 146.059C122.581 147.006 119.194 153.253 118.646 154.747C118.532 154.955 118.489 155.196 118.523 155.431C118.557 155.666 118.666 155.884 118.834 156.053C119.002 156.221 119.221 156.33 119.456 156.364C119.691 156.398 119.931 156.355 120.14 156.241C120.546 155.829 124.481 152.029 125.704 151.894C126.928 151.758 128.01 151.623 128.01 151.623C128.01 151.623 124.887 154.341 124.751 155.152C124.616 155.964 125.299 155.693 126.11 155.288C126.922 154.882 130.045 153.794 131.262 151.623C132.479 149.453 133.568 148.229 135.603 147.418C137.638 146.607 164.196 140.849 168.949 140.038C173.702 139.226 190.8 128.954 191.618 128.819C192.436 128.684 189.351 118.116 186.768 118.116Z" fill="white" stroke="#263238" stroke-linecap="round" stroke-linejoin="round"/>
<path d="M183.111 135.633C183.278 136.135 182.776 143.2 182.435 155.481C182.177 164.902 179.942 181.646 178.912 188.924H214.712C214.969 181.543 215.291 164.664 213.218 157.664C210.526 148.584 207.499 146.716 206.494 142.697C205.49 138.679 203.97 116.454 201.445 108.044C198.921 99.6331 191.354 94.5841 190.175 92.7358C188.997 90.8876 185.294 80.1199 185.294 80.1199L178.905 85.5037C178.905 85.5037 183.613 93.0707 184.289 95.4278C184.965 97.7848 179.743 103.33 177.057 109.055C174.372 114.78 173.837 119.314 176.213 122.843C178.59 126.372 182.943 135.124 183.111 135.633Z" fill="#92E3A9"/>
<path d="M188.584 170.196L194.451 171.484L200.318 170.196L206.185 171.484L212.052 170.196L214.769 170.789L214.711 169.462L212.052 168.876L206.185 170.164L200.318 168.876L194.451 170.164L188.584 168.876L182.724 170.164L181.314 169.855C181.268 170.286 181.223 170.711 181.172 171.143L182.724 171.484L188.584 170.196Z" fill="white"/>
<path d="M195.063 126.121L189.196 127.409L183.329 126.121L178.744 127.125L179.388 128.304L183.336 127.441L189.203 128.729L195.07 127.441L200.936 128.729L204.646 127.911C204.594 127.486 204.549 127.055 204.498 126.623L200.936 127.409L195.063 126.121Z" fill="white"/>
<path d="M188.584 180.004L194.451 181.292L200.318 180.004L206.185 181.292L212.052 180.004L214.892 180.648C214.892 180.217 214.892 179.779 214.892 179.36L212.045 178.716L206.178 180.004L200.311 178.716L194.445 180.004L188.578 178.716L182.717 180.004L180.18 179.444C180.129 179.882 180.071 180.307 180.019 180.732L182.717 181.325L188.584 180.004Z" fill="white"/>
<path d="M214.84 184.21L212.052 183.598L206.185 184.886L200.318 183.598L194.451 184.886L188.584 183.598L182.724 184.886L179.562 184.19C179.504 184.628 179.446 185.06 179.395 185.478L182.724 186.206L188.584 184.918L194.451 186.206L200.318 184.918L206.185 186.206L212.052 184.918L214.815 185.53C214.821 185.098 214.834 184.66 214.84 184.21Z" fill="white"/>
<path d="M175.337 113.543L177.462 114.007L183.329 112.719L189.196 114.007L195.063 112.719L200.929 114.007L202.688 113.621C202.61 113.189 202.533 112.764 202.456 112.333L200.929 112.668L195.063 111.38L189.196 112.668L183.329 111.38L177.462 112.668L175.723 112.288C175.582 112.721 175.453 113.14 175.337 113.543Z" fill="white"/>
<path d="M195.063 116.306L189.196 117.594L183.329 116.306L177.462 117.594L174.732 116.995C174.706 117.435 174.706 117.876 174.732 118.316L177.462 118.914L183.329 117.626L189.196 118.914L195.063 117.626L200.93 118.914L203.441 118.361C203.377 117.929 203.319 117.504 203.255 117.073L200.93 117.581L195.063 116.306Z" fill="white"/>
<path d="M195.063 121.214L189.196 122.501L183.329 121.214L177.462 122.501L175.788 122.134C175.917 122.373 176.059 122.611 176.213 122.843C176.368 123.075 176.554 123.364 176.735 123.661L177.462 123.822L183.329 122.534L189.196 123.822L195.063 122.534L200.93 123.822L204.073 123.133C204.021 122.701 203.963 122.276 203.912 121.845L200.93 122.489L195.063 121.214Z" fill="white"/>
<path d="M188.584 175.103L194.451 176.391L200.318 175.103L206.185 176.391L212.052 175.103L214.885 175.747V174.427L212.071 173.783L206.204 175.071L200.337 173.783L194.471 175.071L188.604 173.783L182.743 175.071L180.811 174.64L180.657 175.928L182.763 176.391L188.584 175.103Z" fill="white"/>
<path d="M183.111 135.633C183.278 136.135 182.776 143.2 182.435 155.481C182.177 164.902 179.942 181.646 178.912 188.924H214.712C214.969 181.543 215.291 164.664 213.218 157.664C210.526 148.584 207.499 146.716 206.494 142.697C205.49 138.679 203.97 116.454 201.445 108.044C198.921 99.6331 191.354 94.5841 190.175 92.7358C188.997 90.8876 185.294 80.1199 185.294 80.1199L178.905 85.5037C178.905 85.5037 183.613 93.0707 184.289 95.4278C184.965 97.7848 179.743 103.33 177.057 109.055C174.372 114.78 173.837 119.314 176.213 122.843C178.59 126.372 182.943 135.124 183.111 135.633Z" stroke="#263238" stroke-linecap="round" stroke-linejoin="round"/>
<path d="M178.898 124.768C178.898 124.768 181.062 129.103 188.288 127.415" stroke="#263238" stroke-linecap="round" stroke-linejoin="round"/>
<path d="M198.637 152.692C198.637 152.692 187.805 165.933 182.988 176.52" stroke="#263238" stroke-linecap="round" stroke-linejoin="round"/>
<path d="M187.084 163.531C187.084 163.531 182.505 171.954 181.288 177.248" stroke="#263238" stroke-linecap="round" stroke-linejoin="round"/>
<path d="M180.966 107.747C184.463 105.815 188.926 97.4435 190.871 95.8979L192.197 94.8353C191.456 94.2033 190.779 93.5001 190.175 92.7358C188.997 90.8876 185.294 80.1199 185.294 80.1199L178.905 85.5037C178.905 85.5037 183.613 93.0707 184.289 95.4278C184.882 97.5079 180.882 102.087 178.087 107.065C178.416 107.986 179.189 108.733 180.966 107.747Z" fill="white" stroke="#263238" stroke-linecap="round" stroke-linejoin="round"/>
<path d="M173.264 67.1691C172.518 68.9371 172.145 70.8402 172.169 72.759C172.285 74.4591 172.652 75.8051 171.969 77.4859C171.57 78.4519 170.218 79.682 170.404 80.7961C170.572 81.8007 173.096 82.1421 173.096 82.1421C173.096 82.1421 175.621 90.0439 176.96 90.2114C178.3 90.3788 181.333 89.5674 185.197 86.3474C189.061 83.1274 184.36 71.5354 180.992 68.515C177.624 65.4947 174.945 65.1469 173.264 67.1691Z" fill="white" stroke="#263238" stroke-linecap="round" stroke-linejoin="round"/>
<path d="M174.41 77.7114C174.651 77.7114 174.848 77.1578 174.848 76.4749C174.848 75.792 174.651 75.2384 174.41 75.2384C174.168 75.2384 173.972 75.792 173.972 76.4749C173.972 77.1578 174.168 77.7114 174.41 77.7114Z" fill="#263238"/>
<path d="M173.245 73.6348C173.245 73.6348 173.683 71.8831 175.434 73.1968" stroke="#263238" stroke-linecap="round" stroke-linejoin="round"/>
<path d="M174.12 83.8357C174.12 83.8357 175.286 84.1319 176.6 82.5477" stroke="#263238" stroke-linecap="round" stroke-linejoin="round"/>
<path d="M176.967 58.2497C176.967 58.2497 170.739 58.4235 169.728 62.455C168.717 66.4864 173.264 70.0284 176.458 71.7093C179.652 73.3901 182.512 76.082 182.512 78.9414C182.512 81.8007 182.685 85.1689 185.036 88.1957C187.387 91.2225 192.764 93.7469 196.982 93.5795C201.2 93.4121 196.647 83.5138 198.998 76.4298C201.349 69.3458 198.354 62.3004 193.614 59.2736C188.874 56.2468 176.967 58.2497 176.967 58.2497Z" fill="#263238" stroke="#263238" stroke-linecap="round" stroke-linejoin="round"/>
<path d="M214.988 119.327C214.932 120.209 214.794 121.084 214.576 121.941" stroke="white" stroke-linecap="round" stroke-linejoin="round"/>
<path d="M175.537 68.7018C176.696 70.6338 178.892 72.6946 183.02 73.8538C192.036 76.4298 195.469 82.6573 195.469 88.0218C195.469 93.3863 195.9 97.2503 204.485 101.546C207.016 102.811 209.234 104.623 210.979 106.851C212.724 109.078 213.953 111.666 214.576 114.426" stroke="white" stroke-linecap="round" stroke-linejoin="round"/>
<path d="M174.217 64.4062C174.218 64.7802 174.255 65.1532 174.326 65.5204" stroke="white" stroke-linecap="round" stroke-linejoin="round"/>
<path d="M186.24 64.4062C186.24 64.4062 196.976 69.7772 196.757 77.0737C196.538 84.3703 197.188 91.2417 203.841 95.3183C210.493 99.3948 217.365 101.977 219.728 110.13" stroke="white" stroke-linecap="round" stroke-linejoin="round"/>
<path d="M192.23 103.478C192.23 103.478 189.377 104.56 187.889 110.124C186.401 115.688 192.5 125.457 193.453 129.804C194.406 134.151 195.353 140.791 195.353 140.791C195.353 140.791 174.043 158.179 170.926 160.877C167.809 163.576 166.173 165.353 166.173 165.353C166.173 165.353 158.445 172.141 157.763 173.5C157.08 174.859 155.187 181.91 155.863 182.181C156.539 182.451 157.763 179.47 157.763 178.929C157.763 178.388 159.115 175.4 159.115 175.4C159.115 175.4 158.033 182.303 158.033 182.69C158.033 183.076 159.115 182.69 159.25 182.142C159.386 181.595 160.88 175.902 160.88 175.902C160.88 175.902 160.068 182.278 160.609 182.986C161.15 183.694 162.103 178.916 162.103 178.916L163.185 175.116C163.185 175.116 162.915 181.762 163.462 182.033C164.009 182.303 165.227 175.522 165.227 175.522C165.227 175.522 167.667 170.634 168.614 169.005C169.154 168.118 169.566 167.16 169.838 166.158C169.838 166.158 182.46 159.235 190.33 155.436C198.199 151.636 204.852 144.578 205.663 143.361C206.475 142.143 204.71 125.039 203.358 117.71C202.005 110.381 199.153 101.546 192.23 103.478Z" fill="white" stroke="#263238" stroke-linecap="round" stroke-linejoin="round"/>
<path d="M148.141 94.7323C148.141 94.7323 143.285 98.036 139.402 101.172C135.519 104.309 136.098 110.497 136.098 111.856C136.098 113.215 135.905 119.43 135.905 119.43L132.988 125.644C132.988 125.644 128.525 129.727 127.552 130.7C126.58 131.672 120.951 142.736 120.951 142.736L119.593 144.668L126.992 145.621C129.755 142.541 132.811 139.737 136.118 137.249C140.954 133.746 145.024 124.086 145.224 122.894C146.044 119.64 146.623 116.329 146.956 112.99" fill="white"/>
<path d="M148.141 94.7323C148.141 94.7323 143.285 98.036 139.402 101.172C135.519 104.309 136.098 110.497 136.098 111.856C136.098 113.215 135.905 119.43 135.905 119.43L132.988 125.644C132.988 125.644 128.525 129.727 127.552 130.7C126.58 131.672 120.951 142.736 120.951 142.736L119.593 144.668L126.992 145.621C129.755 142.541 132.811 139.737 136.118 137.249C140.954 133.746 145.024 124.086 145.224 122.894C146.044 119.64 146.623 116.329 146.956 112.99" stroke="#263238" stroke-linecap="round" stroke-linejoin="round"/>
<path d="M145.668 120.821C142.403 115.463 137.94 116.158 135.956 116.828C135.911 118.245 135.879 119.404 135.879 119.404L132.962 125.618C132.962 125.618 128.499 129.701 127.526 130.674C126.554 131.646 120.925 142.71 120.925 142.71L119.567 144.642L126.992 145.621C129.755 142.541 132.811 139.737 136.117 137.249C140.954 133.746 145.024 124.086 145.224 122.894C145.294 122.501 145.475 121.78 145.668 120.821Z" fill="white" stroke="#263238" stroke-linecap="round" stroke-linejoin="round"/>
<path d="M123.721 140.186C123.721 140.186 118.897 144.127 117.925 145.376C116.952 146.626 116.192 153.974 116.579 154.508C116.965 155.043 119.664 156.479 120.823 155.223C121.982 153.967 126.226 147.914 126.226 147.914C126.226 147.914 123.006 152.267 125.305 152.023C127.604 151.778 128.924 148.236 130.277 146.626C131.629 145.016 131.436 144.835 130.277 142.511L129.124 140.186" fill="white"/>
<path d="M123.721 140.186C123.721 140.186 118.897 144.127 117.925 145.376C116.952 146.626 116.192 153.974 116.579 154.508C116.965 155.043 119.664 156.479 120.823 155.223C121.982 153.967 126.226 147.914 126.226 147.914C126.226 147.914 123.006 152.267 125.305 152.023C127.604 151.778 128.924 148.236 130.277 146.626C131.629 145.016 131.436 144.835 130.277 142.511L129.124 140.186" stroke="#263238" stroke-linecap="round" stroke-linejoin="round"/>
<path d="M116.585 154.502C116.585 154.502 119.039 146.13 120.018 145.486" stroke="#263238" stroke-linecap="round" stroke-linejoin="round"/>
<path d="M117.738 155.114C117.738 155.114 120.585 147.244 122.053 145.615" stroke="#263238" stroke-linecap="round" stroke-linejoin="round"/>
<path d="M119.264 155.674C119.264 155.674 122.349 147.946 124.371 146.072" stroke="#263238" stroke-linecap="round" stroke-linejoin="round"/>
<path d="M126.226 147.914C126.226 147.914 127.868 146.458 128.119 145.583L126.226 147.914Z" fill="white"/>
<path d="M126.226 147.914C126.226 147.914 127.868 146.458 128.119 145.583" stroke="#263238" stroke-linecap="round" stroke-linejoin="round"/>
<path d="M7.37573 188.924H248.386" stroke="#263238" stroke-linecap="round" stroke-linejoin="round"/>
</svg>
